<?xml version="1.0" encoding="UTF-8"?>
<svg version="1.1" xmlns="http://www.w3.org/2000/svg" width="128" height="129">
<path d="M0 0 C14.68250132 10.20720437 25.60416255 23.76154778 29.75219727 41.49169922 C32.83619129 60.17339192 29.49455514 78.02421588 19.125 93.75 C8.85365223 107.27198638 -5.89730701 117.16860627 -22.875 119.75 C-43.03280752 121.33104182 -61.10093201 118.16613532 -76.84155273 104.81835938 C-87.86547894 94.89138491 -96.85569494 80.11343833 -98.09594727 65.07006836 C-98.56990818 53.14054249 -98.80334888 41.81858684 -93.875 30.75 C-93.51277344 29.87730469 -93.15054688 29.00460938 -92.77734375 28.10546875 C-85.8549626 12.82929883 -73.23462165 1.78063924 -57.87109375 -4.47265625 C-38.93392049 -11.50790437 -17.48941603 -10.43527048 0 0 Z " fill="#0866FF" transform="translate(97.875,8.25)"/>
<path d="M0 0 C0.91974609 -0.00128906 1.83949219 -0.00257812 2.78710938 -0.00390625 C4.22473633 0.00189453 4.22473633 0.00189453 5.69140625 0.0078125 C6.64595703 0.00394531 7.60050781 0.00007813 8.58398438 -0.00390625 C9.50501953 -0.00261719 10.42605469 -0.00132813 11.375 0 C12.21474365 0.00112793 13.0544873 0.00225586 13.91967773 0.00341797 C16.25390625 0.1328125 16.25390625 0.1328125 20.25390625 1.1328125 C20.25390625 7.0728125 20.25390625 13.0128125 20.25390625 19.1328125 C15.02929688 19.37695312 15.02929688 19.37695312 9.8046875 19.62109375 C6.1146679 20.15287875 4.16460796 20.84096268 1.25390625 23.1328125 C-1.13415849 26.44387159 -1.13139731 29.88787183 -1.37109375 33.8828125 C-1.55671875 36.9765625 -1.55671875 36.9765625 -1.74609375 40.1328125 C5.18390625 40.1328125 12.11390625 40.1328125 19.25390625 40.1328125 C18.77953125 42.8759375 18.30515625 45.6190625 17.81640625 48.4453125 C17.66888916 49.30552002 17.52137207 50.16572754 17.36938477 51.05200195 C17.25006592 51.73480225 17.13074707 52.41760254 17.0078125 53.12109375 C16.82714233 54.16583862 16.82714233 54.16583862 16.64282227 55.23168945 C16.25390625 57.1328125 16.25390625 57.1328125 15.25390625 60.1328125 C9.64390625 60.1328125 4.03390625 60.1328125 -1.74609375 60.1328125 C-1.74609375 74.6528125 -1.74609375 89.1728125 -1.74609375 104.1328125 C-20.74609375 104.1328125 -20.74609375 104.1328125 -25.74609375 103.1328125 C-25.74609375 88.9428125 -25.74609375 74.7528125 -25.74609375 60.1328125 C-30.03609375 60.1328125 -34.32609375 60.1328125 -38.74609375 60.1328125 C-38.74609375 53.5328125 -38.74609375 46.9328125 -38.74609375 40.1328125 C-34.45609375 40.1328125 -30.16609375 40.1328125 -25.74609375 40.1328125 C-25.7925 39.20082031 -25.83890625 38.26882812 -25.88671875 37.30859375 C-26.17948802 26.96756493 -25.62643909 16.60280609 -18.99609375 8.0703125 C-13.9843086 2.93100102 -7.1302187 0.00959007 0 0 Z " fill="#FBFCFF" transform="translate(73.74609375,23.8671875)"/>
</svg>
