<?xml version="1.0" encoding="UTF-8"?>
<svg version="1.1" xmlns="http://www.w3.org/2000/svg" width="128" height="129">
<path d="M0 0 C11.99444227 10.10767607 19.48560296 24.73193921 20.93457031 40.29492188 C22.1224962 58.36165088 17.66826201 74.04808558 5.9375 88.125 C-5.91271738 100.72725041 -21.19169065 106.36685992 -38.15234375 107.3515625 C-45.85170743 107.45934987 -54.07691026 105.95644444 -61.21484375 103.14453125 C-68.16051171 101.24050644 -75.58671104 104.05797685 -82.33789062 105.93945312 C-86.74831654 107.10956612 -90.69230492 107.66395017 -95.25 107.3125 C-98.25 105.3125 -98.25 105.3125 -99.08984375 102.24609375 C-99.28374971 97.48357413 -98.26410853 93.86626922 -96.8125 89.375 C-94.01892714 80.63860107 -93.36219136 74.17620436 -96.1875 65.1875 C-101.21866773 48.99399239 -99.67435914 33.24770946 -92.5625 17.875 C-84.54337794 3.14971037 -70.93648516 -6.31725457 -55.25 -11.5625 C-35.9011758 -16.28035554 -15.8243063 -11.80773925 0 0 Z " fill="#3EC24F" transform="translate(103.25,16.6875)"/>
<path d="M0 0 C11.99444227 10.10767607 19.48560296 24.73193921 20.93457031 40.29492188 C22.1224962 58.36165088 17.66826201 74.04808558 5.9375 88.125 C-5.91271738 100.72725041 -21.19169065 106.36685992 -38.15234375 107.3515625 C-45.85170743 107.45934987 -54.07691026 105.95644444 -61.21484375 103.14453125 C-68.16051171 101.24050644 -75.58671104 104.05797685 -82.33789062 105.93945312 C-86.74831654 107.10956612 -90.69230492 107.66395017 -95.25 107.3125 C-98.25 105.3125 -98.25 105.3125 -99.08984375 102.24609375 C-99.28374971 97.48357413 -98.26410853 93.86626922 -96.8125 89.375 C-94.01892714 80.63860107 -93.36219136 74.17620436 -96.1875 65.1875 C-101.21866773 48.99399239 -99.67435914 33.24770946 -92.5625 17.875 C-84.54337794 3.14971037 -70.93648516 -6.31725457 -55.25 -11.5625 C-35.9011758 -16.28035554 -15.8243063 -11.80773925 0 0 Z M-73.18359375 16.375 C-82.11266865 27.1282945 -85.22039706 38.39435122 -84.49414062 52.16552734 C-83.75534517 58.66249457 -81.01958075 64.98914104 -77.96875 70.71875 C-76.92816275 74.47391267 -78.0130856 77.51645793 -79.125 81.125 C-79.32480469 81.81787109 -79.52460937 82.51074219 -79.73046875 83.22460938 C-80.22291192 84.9247108 -80.7345637 86.61922786 -81.25 88.3125 C-80.63253906 88.17972656 -80.01507813 88.04695313 -79.37890625 87.91015625 C-76.67473353 87.34627244 -73.96324871 86.83076099 -71.25 86.3125 C-70.4971875 86.1371875 -69.744375 85.961875 -68.96875 85.78125 C-62.91990698 84.64161291 -59.15694589 86.39207128 -53.73828125 89.09765625 C-50.81069447 90.52698041 -48.50423897 91.10911006 -45.25 91.3125 C-44.45207031 91.36277344 -43.65414062 91.41304688 -42.83203125 91.46484375 C-31.16240496 91.87632564 -19.76832021 88.56578325 -10.61328125 81.1875 C-4.36933539 75.36355049 -0.44160485 69.20525252 2.75 61.3125 C3.12253906 60.39210937 3.49507813 59.47171875 3.87890625 58.5234375 C6.63068223 48.38011976 5.9616313 36.2817476 1.296875 26.88671875 C-6.58152594 13.77594547 -15.83676293 7.11691236 -30.25 2.3125 C-47.25016298 0.66159296 -61.15137781 3.54063633 -73.18359375 16.375 Z " fill="#FBFCFB" transform="translate(103.25,16.6875)"/>
<path d="M0 0 C11.99444227 10.10767607 19.48560296 24.73193921 20.93457031 40.29492188 C22.1224962 58.36165088 17.66826201 74.04808558 5.9375 88.125 C-5.91271738 100.72725041 -21.19169065 106.36685992 -38.15234375 107.3515625 C-45.85170743 107.45934987 -54.07691026 105.95644444 -61.21484375 103.14453125 C-68.16051171 101.24050644 -75.58671104 104.05797685 -82.33789062 105.93945312 C-86.74831654 107.10956612 -90.69230492 107.66395017 -95.25 107.3125 C-98.25 105.3125 -98.25 105.3125 -99.08984375 102.24609375 C-99.28374971 97.48357413 -98.26410853 93.86626922 -96.8125 89.375 C-94.01892714 80.63860107 -93.36219136 74.17620436 -96.1875 65.1875 C-101.21866773 48.99399239 -99.67435914 33.24770946 -92.5625 17.875 C-84.54337794 3.14971037 -70.93648516 -6.31725457 -55.25 -11.5625 C-35.9011758 -16.28035554 -15.8243063 -11.80773925 0 0 Z M-80.89990234 10.71044922 C-84.87084443 15.42244234 -87.64423353 20.76136842 -90.25 26.3125 C-90.63027344 27.11945312 -91.01054688 27.92640625 -91.40234375 28.7578125 C-96.55438648 42.38579651 -93.42254885 58.16183629 -88.09960938 71.11108398 C-87.11068602 74.83744947 -87.47836357 76.63864938 -88.5859375 80.296875 C-88.90820312 81.39644531 -89.23046875 82.49601562 -89.5625 83.62890625 C-90.0884375 85.32853516 -90.0884375 85.32853516 -90.625 87.0625 C-91.30122637 89.32760412 -91.97579327 91.59320455 -92.6484375 93.859375 C-93.10742432 95.35742676 -93.10742432 95.35742676 -93.57568359 96.88574219 C-94.33924128 99.21388168 -94.33924128 99.21388168 -94.25 101.3125 C-87.37684013 99.86551897 -80.64678002 98.0553907 -73.8984375 96.1171875 C-66.92449775 94.57903805 -62.6625906 95.38745868 -56.25 98.3125 C-41.58976688 102.57168352 -27.22599063 100.99251362 -13.5625 94.125 C-0.29179194 86.16257517 8.98594284 74.24606384 13.29418945 59.44262695 C16.36831838 45.07638436 13.93665003 30.10960749 6.5625 17.625 C-2.28709194 4.59435085 -14.27058496 -3.5689265 -29.55859375 -7.2421875 C-48.98735262 -10.45681524 -67.56328868 -3.63547129 -80.89990234 10.71044922 Z " fill="#B1B1B1" transform="translate(103.25,16.6875)"/>
<path d="M0 0 C1.03801555 1.88648044 2.05483167 3.78463656 3.0625 5.6875 C3.63097656 6.74324219 4.19945313 7.79898438 4.78515625 8.88671875 C6.0985156 12.25246602 6.18313038 13.63990972 5 17 C3.4375 18.8125 3.4375 18.8125 2 20 C4.28344081 28.11890066 10.85906245 33.36344247 17.88671875 37.3828125 C20.01919728 38.22718884 20.01919728 38.22718884 22.16015625 37.25 C24.32003637 35.78256553 25.5591036 34.1613446 27 32 C32.85272256 32.45020943 37.08220119 35.03839227 42 38 C41.76001446 44.11963135 41.76001446 44.11963135 39.66796875 46.54296875 C35.62554401 49.89690266 32.82349935 51.43181158 27.53125 51.3359375 C14.47384659 49.6030105 3.46833824 41.72149481 -4.4375 31.5625 C-8.94368557 25.50260741 -12.47606389 19.86402884 -13.5 12.3125 C-12.89201674 8.28461088 -11.52038327 6.16848182 -9 3 C-8.319375 2.071875 -8.319375 2.071875 -7.625 1.125 C-5.1836633 -0.56515618 -2.89662234 -0.07026847 0 0 Z " fill="#F9FDFA" transform="translate(49,38)"/>
<path d="M0 0 C1 3 1 3 1 4 C1.66 4.33 2.32 4.66 3 5 C2.45859375 6.51013672 2.45859375 6.51013672 1.90625 8.05078125 C-3.85865985 25.10128712 -3.71227353 40.04422222 3.14819336 56.80517578 C4.13220642 60.49585934 3.79393512 62.25605054 2.69921875 65.87890625 C2.38146484 66.96494141 2.06371094 68.05097656 1.73632812 69.16992188 C1.2171582 70.84924805 1.2171582 70.84924805 0.6875 72.5625 C0.02346315 74.79258907 -0.63934346 77.02304492 -1.30078125 79.25390625 C-1.60153564 80.23689697 -1.90229004 81.2198877 -2.2121582 82.23266602 C-2.94629511 84.81135888 -3.48475974 87.37086873 -4 90 C-4.33 90.99 -4.66 91.98 -5 93 C-8 91 -8 91 -8.83984375 87.93359375 C-9.03374971 83.17107413 -8.01410853 79.55376922 -6.5625 75.0625 C-3.76892714 66.32610107 -3.11219136 59.86370436 -5.9375 50.875 C-10.8747601 34.98374706 -9.71761719 18.91528491 -2.25 3.9375 C-1.51904653 2.61429809 -0.77728099 1.29653018 0 0 Z " fill="#ADADAD" transform="translate(13,31)"/>
<path d="M0 0 C0.99 1.32 1.98 2.64 3 4 C1.54434981 7.18649794 -0.25810718 9.76287009 -2.4375 12.5 C-4.66313697 15.30728292 -6.86296554 18.12447963 -9 21 C-9.33 20.01 -9.66 19.02 -10 18 C-10.66 18.33 -11.32 18.66 -12 19 C-9.98926941 10.72727988 -5.91143403 5.91143403 0 0 Z " fill="#BBBBBB" transform="translate(24,18)"/>
<path d="M0 0 C0.99 0 1.98 0 3 0 C4.1189783 5.34622964 3.70806483 8.87580551 2 14 C-1 12 -1 12 -1.8125 8.6875 C-1.99782057 5.04286206 -1.64596835 3.19511503 0 0 Z " fill="#ADADAD" transform="translate(6,110)"/>
<path d="M0 0 C0.33 0 0.66 0 1 0 C1.1953125 6.0546875 1.1953125 6.0546875 1 8 C0.34 8.66 -0.32 9.32 -1 10 C-1.66 9.67 -2.32 9.34 -3 9 C-3.40729228 6.67843403 -3.74438677 4.3431213 -4 2 C-2.68 2 -1.36 2 0 2 C0 1.34 0 0.68 0 0 Z " fill="#B5B5B5" transform="translate(9,54)"/>
<path d="M0 0 C1 3 1 3 0 6 C-1.5625 7.6875 -1.5625 7.6875 -3 9 C-3.66 8.67 -4.32 8.34 -5 8 C-4.1875 4.5625 -4.1875 4.5625 -3 1 C-2.01 0.67 -1.02 0.34 0 0 Z " fill="#A2A2A2" transform="translate(12,96)"/>
<path d="M0 0 C2.12508244 3.18762365 2.5020163 5.26512223 3 9 C1.68 9 0.36 9 -1 9 C-0.67 6.03 -0.34 3.06 0 0 Z " fill="#BFBFBF" transform="translate(121,62)"/>
<path d="M0 0 C0.93065133 2.60582371 1.14917407 3.64198224 0.0625 6.25 C-0.4634375 7.11625 -0.4634375 7.11625 -1 8 C-2.32 6.68 -3.64 5.36 -5 4 C-3.35 2.68 -1.7 1.36 0 0 Z " fill="#BABABA" transform="translate(11,105)"/>
<path d="M0 0 C0.99 0 1.98 0 3 0 C3 0.99 3 1.98 3 3 C0.5 5.1875 0.5 5.1875 -2 7 C-2.66 6.67 -3.32 6.34 -4 6 C-3.67 5.01 -3.34 4.02 -3 3 C-2.34 3 -1.68 3 -1 3 C-0.67 2.01 -0.34 1.02 0 0 Z " fill="#A9A9A9" transform="translate(10,102)"/>
<path d="M0 0 C2 3 2 3 2 5 C2.99 5.33 3.98 5.66 5 6 C4.67 6.99 4.34 7.98 4 9 C3.01 8.34 2.02 7.68 1 7 C0.3125 3.375 0.3125 3.375 0 0 Z " fill="#7B7B7B" transform="translate(4,115)"/>
<path d="M0 0 C0 0.99 0 1.98 0 3 C-2.8125 3.625 -2.8125 3.625 -6 4 C-6.99 3.34 -7.98 2.68 -9 2 C-2.25 0 -2.25 0 0 0 Z " fill="#D1D1D1" transform="translate(52,5)"/>
</svg>
